<?xml version="1.0" encoding="UTF-8"?>
<svg id="Layer_1" data-name="Layer 1" xmlns="http://www.w3.org/2000/svg" viewBox="0 0 512 512">
  <defs>
    <style>
      .cls-1 {
        fill: #fff;
      }

      .cls-2 {
        fill: #2a324b;
      }

      .cls-3 {
        fill: #767b91;
      }
    </style>
  </defs>
  <rect class="cls-1" x="0" y="0" width="512" height="512"/>
  <g>
    <path class="cls-2" d="M225.27,125.8h-49.1v37.61h38.45v141.05c0,24.16-14.76,41.37-38.45,41.37s-38.11-18.3-38.8-38.8h-39.49c0,44.3,30.56,79.44,78.29,79.44s78.29-34.4,78.29-82V125.8h-29.19Z"/>
    <path class="cls-3" d="M368.62,247.42c15.67-5.97,35.06-22.38,35.06-52.97,0-38.42-31.71-69.01-78.33-69.01h-52.5v37.67h48.77c23.13,0,38.8,14.18,38.8,33.95s-15.67,34.69-38.8,34.69h-48.77v36.18h53.25c26.48,0,44.76,17.16,44.76,40.29s-18.28,40.66-44.76,40.66h-61.55v-.27c-7.51,17.29-20.49,30.59-37.78,37.95h103.06c49.98,0,84.3-32.82,84.3-74.98,0-38.8-27.6-58.2-45.5-64.16Z"/>
  </g>
</svg>